<?xml version="1.0" standalone="no"?>
<!DOCTYPE svg PUBLIC "-//W3C//DTD SVG 20010904//EN"
 "http://www.w3.org/TR/2001/REC-SVG-20010904/DTD/svg10.dtd">
<svg version="1.0" xmlns="http://www.w3.org/2000/svg"
 width="512.000000pt" height="512.000000pt" viewBox="0 0 512.000000 512.000000"
 preserveAspectRatio="xMidYMid meet">
<metadata>
Created by potrace 1.14, written by Peter Selinger 2001-2017
</metadata>
<g transform="translate(0.000000,512.000000) scale(0.100000,-0.100000)"
fill="#000000" stroke="none">
<path d="M3157 4920 l-27 -21 -2 -267 -3 -267 -25 -3 c-66 -7 -212 -48 -270
-75 -183 -85 -331 -227 -419 -403 l-39 -76 -158 -3 c-88 -1 -172 -5 -189 -9
-16 -4 -49 -11 -72 -17 -70 -15 -201 -66 -269 -104 -126 -71 -224 -154 -325
-275 -87 -105 -106 -155 -73 -191 14 -16 13 -23 -14 -85 -17 -38 -34 -69 -39
-70 -4 -1 -19 -5 -33 -8 -14 -3 -31 -15 -39 -27 -23 -39 -49 -214 -47 -327 l1
-107 -40 -2 c-172 -11 -284 -41 -415 -113 -248 -136 -426 -388 -467 -660 -11
-71 -8 -260 6 -315 6 -27 13 -59 16 -70 32 -152 160 -348 311 -476 86 -73 259
-155 374 -178 100 -19 114 -21 213 -22 53 0 97 -4 97 -7 0 -4 2 -34 4 -68 14
-240 305 -359 484 -199 70 63 99 129 101 232 l1 42 169 0 169 1 -5 -87 c-6
-97 10 -180 48 -255 43 -85 166 -183 265 -212 42 -13 148 -15 198 -4 155 32
273 138 326 294 16 44 19 78 17 159 l-3 103 169 -1 169 -2 2 -55 c4 -96 22
-138 86 -201 70 -68 122 -89 217 -85 162 6 285 139 278 301 -1 33 -5 72 -9 86
l-7 26 90 1 c66 0 91 -3 91 -12 0 -7 10 -23 22 -35 20 -22 26 -23 107 -18 138
9 191 32 191 82 0 18 11 28 48 46 26 12 64 33 85 46 33 21 40 22 58 10 32 -23
68 -8 127 51 113 114 193 273 219 432 8 51 9 187 1 245 -19 144 -99 311 -203
424 -137 149 -354 249 -552 255 -12 1 -23 3 -26 6 -2 3 -7 43 -10 90 -11 169
-88 323 -212 423 l-52 43 24 30 c78 95 151 262 174 397 l13 77 252 0 c139 0
264 4 277 9 44 17 52 82 15 114 -18 15 -47 17 -284 17 l-264 0 -1 23 c-1 47
-26 150 -52 217 -118 310 -388 525 -709 567 l-47 6 -3 268 c-3 290 -3 290 -58
304 -18 4 -34 0 -53 -15z"/>
<path d="M2455 4725 c-14 -13 -25 -32 -25 -43 0 -25 136 -262 166 -289 31 -29
54 -29 89 -1 22 17 26 27 22 52 -5 33 -125 245 -160 284 -27 29 -62 28 -92 -3z"/>
<path d="M3866 4741 c-26 -10 -176 -268 -176 -303 0 -32 35 -68 66 -68 32 0
66 41 139 169 77 135 82 151 50 185 -24 26 -45 31 -79 17z"/>
<path d="M1956 4229 c-28 -22 -34 -62 -13 -90 20 -26 274 -169 301 -169 28 0
66 42 66 72 0 24 -42 65 -96 94 -21 12 -75 42 -119 68 -44 25 -87 46 -96 46
-9 0 -28 -9 -43 -21z"/>
<path d="M4319 4216 c-30 -18 -87 -52 -128 -76 -40 -24 -79 -50 -87 -58 -35
-34 1 -112 51 -112 11 0 81 35 155 78 144 83 169 108 151 155 -19 49 -72 54
-142 13z"/>
<path d="M4110 2970 c-20 -20 -26 -65 -12 -86 4 -7 23 -21 42 -32 19 -10 76
-43 125 -72 115 -67 129 -72 159 -59 44 20 55 88 18 115 -56 42 -265 154 -286
154 -14 0 -35 -9 -46 -20z"/>
</g>
</svg>
